<svg width="15" height="15" viewBox="0 0 15 15" fill="none" xmlns="http://www.w3.org/2000/svg">
<path d="M15 7.5C15 3.35742 11.6426 0 7.5 0C3.35742 0 0 3.35742 0 7.5C0 11.6426 3.35742 15 7.5 15C11.6426 15 15 11.6426 15 7.5ZM5.90039 11.4434C5.53418 11.0771 5.53418 10.4839 5.90039 10.1177L8.5166 7.5L5.90039 4.88086C5.53418 4.51465 5.53418 3.92139 5.90039 3.55518C6.2666 3.18896 6.85986 3.18896 7.22607 3.55518L10.5073 6.83643C10.6904 7.01953 10.7812 7.25977 10.7812 7.5C10.7812 7.74023 10.6897 7.97988 10.5066 8.16269L7.22534 11.4439C6.8584 11.8096 6.2666 11.8096 5.90039 11.4434Z" fill="#5A9178"/>
</svg>
