<svg width="24" height="24" viewBox="0 0 24 24" fill="none" xmlns="http://www.w3.org/2000/svg">
    <path d="M21.89 2C21.9192 2 21.9472 2.01159 21.9678 2.03222C21.9884 2.05285 22 2.08083 22 2.11V21.89C22 21.9192 21.9884 21.9472 21.9678 21.9678C21.9472 21.9884 21.9192 22 21.89 22H2.11C2.08083 22 2.05285 21.9884 2.03222 21.9678C2.01159 21.9472 2 21.9192 2 21.89V2.11C2 2.09555 2.00285 2.08125 2.00837 2.0679C2.0139 2.05456 2.022 2.04243 2.03222 2.03222C2.04243 2.022 2.05456 2.0139 2.0679 2.00837C2.08125 2.00285 2.09555 2 2.11 2H21.89ZM21.89 0H2.11C1.5512 0.00262967 1.01604 0.225777 0.62091 0.62091C0.225777 1.01604 0.00262967 1.5512 0 2.11V21.89C0.00262967 22.4488 0.225777 22.984 0.62091 23.3791C1.01604 23.7742 1.5512 23.9974 2.11 24H21.89C22.4488 23.9974 22.984 23.7742 23.3791 23.3791C23.7742 22.984 23.9974 22.4488 24 21.89V2.11C23.9974 1.5512 23.7742 1.01604 23.3791 0.62091C22.984 0.225777 22.4488 0.00262967 21.89 0Z" fill="#EFEFEF"/>
    <path d="M8.5 1V24" stroke="#EFEFEF" stroke-width="2" stroke-miterlimit="10"/>
    <path d="M23.5 7.99023H9" stroke="#EFEFEF" stroke-width="2" stroke-miterlimit="10"/>
</svg>