<svg width="32" height="32" viewBox="0 0 32 32" fill="none" xmlns="http://www.w3.org/2000/svg">
    <path d="M24.34 6.46998C24.1172 5.75858 23.673 5.1369 23.0723 4.69552C22.4715 4.25414 21.7455 4.01611 21 4.01611C20.2545 4.01611 19.5285 4.25414 18.9277 4.69552C18.327 5.1369 17.8828 5.75858 17.66 6.46998H4V8.56998H17.66C17.8828 9.28138 18.327 9.90305 18.9277 10.3444C19.5285 10.7858 20.2545 11.0238 21 11.0238C21.7455 11.0238 22.4715 10.7858 23.0723 10.3444C23.673 9.90305 24.1172 9.28138 24.34 8.56998H28V6.46998H24.34ZM21 8.68998C20.826 8.69162 20.6543 8.65041 20.5 8.56998C20.3038 8.47353 20.1385 8.32404 20.023 8.13845C19.9074 7.95286 19.8461 7.73861 19.8461 7.51998C19.8461 7.30135 19.9074 7.08709 20.023 6.9015C20.1385 6.71592 20.3038 6.56642 20.5 6.46998C20.6543 6.38955 20.826 6.34833 21 6.34998C21.1772 6.34832 21.3521 6.38948 21.51 6.46998C21.7062 6.56642 21.8715 6.71592 21.987 6.9015C22.1026 7.08709 22.1639 7.30135 22.1639 7.51998C22.1639 7.73861 22.1026 7.95286 21.987 8.13845C21.8715 8.32404 21.7062 8.47353 21.51 8.56998C21.3521 8.65047 21.1772 8.69164 21 8.68998Z" fill="#EFEFEF"/>
    <path d="M7.72 17.0698C7.94282 17.7812 8.38697 18.4028 8.98774 18.8442C9.58851 19.2856 10.3145 19.5236 11.06 19.5236C11.8055 19.5236 12.5315 19.2856 13.1323 18.8442C13.733 18.4028 14.1772 17.7812 14.4 17.0698H28V14.9998H14.4C14.1772 14.2884 13.733 13.6667 13.1323 13.2253C12.5315 12.7839 11.8055 12.5459 11.06 12.5459C10.3145 12.5459 9.58851 12.7839 8.98774 13.2253C8.38697 13.6667 7.94282 14.2884 7.72 14.9998H4V17.0998L7.72 17.0698ZM11.06 14.8498C11.234 14.8481 11.4057 14.8893 11.56 14.9698C11.7562 15.0662 11.9215 15.2157 12.037 15.4013C12.1526 15.5869 12.2139 15.8011 12.2139 16.0198C12.2139 16.2384 12.1526 16.4526 12.037 16.6382C11.9215 16.8238 11.7562 16.9733 11.56 17.0698C11.4057 17.1502 11.234 17.1914 11.06 17.1898C10.8828 17.1914 10.7079 17.1503 10.55 17.0698C10.3538 16.9733 10.1885 16.8238 10.073 16.6382C9.9574 16.4526 9.89614 16.2384 9.89614 16.0198C9.89614 15.8011 9.9574 15.5869 10.073 15.4013C10.1885 15.2157 10.3538 15.0662 10.55 14.9698C10.7079 14.8893 10.8828 14.8481 11.06 14.8498Z" fill="#EFEFEF"/>
    <path d="M24.34 23.47C24.1172 22.7586 23.673 22.1369 23.0723 21.6955C22.4715 21.2541 21.7455 21.0161 21 21.0161C20.2545 21.0161 19.5285 21.2541 18.9277 21.6955C18.327 22.1369 17.8828 22.7586 17.66 23.47H4V25.57H17.66C17.8828 26.2814 18.327 26.9031 18.9277 27.3444C19.5285 27.7858 20.2545 28.0238 21 28.0238C21.7455 28.0238 22.4715 27.7858 23.0723 27.3444C23.673 26.9031 24.1172 26.2814 24.34 25.57H28V23.47H24.34ZM21 25.69C20.826 25.6916 20.6543 25.6504 20.5 25.57C20.3038 25.4735 20.1385 25.324 20.023 25.1385C19.9074 24.9529 19.8461 24.7386 19.8461 24.52C19.8461 24.3013 19.9074 24.0871 20.023 23.9015C20.1385 23.7159 20.3038 23.5664 20.5 23.47C20.6543 23.3895 20.826 23.3483 21 23.35C21.1772 23.3483 21.3521 23.3895 21.51 23.47C21.7062 23.5664 21.8715 23.7159 21.987 23.9015C22.1026 24.0871 22.1639 24.3013 22.1639 24.52C22.1639 24.7386 22.1026 24.9529 21.987 25.1385C21.8715 25.324 21.7062 25.4735 21.51 25.57C21.3521 25.6505 21.1772 25.6916 21 25.69Z" fill="#EFEFEF"/>
</svg>