<svg width="26" height="25" viewBox="0 0 26 25" xmlns="http://www.w3.org/2000/svg">
    <g stroke="#FFF" fill="none" fill-rule="evenodd" stroke-linecap="round" stroke-linejoin="round">
        <path d="M24.978 12.71a1.032 1.032 0 0 0-.219-.872 1.071 1.071 0 0 0-.825-.383H11.319a1.06 1.06 0 0 1-1.043-.837L9.98 9.155a1.06 1.06 0 0 0-1.043-.837H2.065c-.32 0-.623.14-.825.384a1.032 1.032 0 0 0-.218.87l2.765 13.592A1.06 1.06 0 0 0 4.831 24h16.977c.506 0 .942-.35 1.043-.836.438-2.162 1.608-7.908 2.127-10.455zM5.022 6.227V2.045C5.022 1.468 5.498 1 6.086 1h13.828c.588 0 1.064.468 1.064 1.045v7.319M8.213 4.135h9.042M12.468 7.272h4.787"/>
    </g>
</svg>
