<svg width="32" height="32" viewBox="0 0 32 32" fill="none" xmlns="http://www.w3.org/2000/svg">
    <path d="M26.2098 5.77979H14.8498C14.0159 5.77979 13.3398 6.45583 13.3398 7.28978V8.23978C13.3398 9.07373 14.0159 9.74978 14.8498 9.74978H26.2098C27.0438 9.74978 27.7198 9.07373 27.7198 8.23978V7.28978C27.7198 6.45583 27.0438 5.77979 26.2098 5.77979Z" fill="#EFEFEF"/>
    <path d="M26.2201 5.99998C26.5516 5.99998 26.8695 6.13168 27.104 6.3661C27.3384 6.60052 27.4701 6.91846 27.4701 7.24998V8.24998C27.4701 8.5815 27.3384 8.89944 27.104 9.13386C26.8695 9.36828 26.5516 9.49998 26.2201 9.49998H14.8501C14.6851 9.49999 14.5217 9.46733 14.3694 9.40388C14.2171 9.34044 14.0788 9.24747 13.9626 9.13034C13.8464 9.0132 13.7546 8.87422 13.6923 8.72141C13.6301 8.56859 13.5988 8.40497 13.6001 8.23998V7.23998C13.6027 6.9102 13.7356 6.59482 13.9697 6.36255C14.2038 6.13029 14.5203 5.99997 14.8501 5.99998H26.2201ZM26.2201 5.48998H14.8501C14.6181 5.48866 14.3882 5.53321 14.1735 5.62107C13.9588 5.70893 13.7636 5.83836 13.5991 6.00192C13.4346 6.16549 13.3041 6.35995 13.215 6.57414C13.1259 6.78833 13.0801 7.01801 13.0801 7.24998V8.24998C13.0814 8.48111 13.1282 8.70971 13.2179 8.92275C13.3075 9.13578 13.4383 9.32906 13.6026 9.49157C13.767 9.65407 13.9618 9.78261 14.1758 9.86984C14.3898 9.95708 14.619 10.0013 14.8501 9.99998H26.2201C26.4529 10.0026 26.6839 9.95906 26.8997 9.87179C27.1156 9.78453 27.312 9.65531 27.4775 9.49161C27.6431 9.32792 27.7745 9.133 27.8642 8.91816C27.9539 8.70331 28.0001 8.4728 28.0001 8.23998V7.23998C28.0001 6.7732 27.8147 6.32554 27.4846 5.99547C27.1545 5.66541 26.7069 5.47998 26.2401 5.47998L26.2201 5.48998Z" fill="#EFEFEF"/>
    <path d="M7.74023 10.7598C9.39709 10.7598 10.7402 9.41662 10.7402 7.75977C10.7402 6.10291 9.39709 4.75977 7.74023 4.75977C6.08338 4.75977 4.74023 6.10291 4.74023 7.75977C4.74023 9.41662 6.08338 10.7598 7.74023 10.7598Z" stroke="#EFEFEF" stroke-width="1.5" stroke-linecap="round" stroke-linejoin="round"/>
    <path d="M7.74023 9.00977C8.43059 9.00977 8.99023 8.45012 8.99023 7.75977C8.99023 7.06941 8.43059 6.50977 7.74023 6.50977C7.04988 6.50977 6.49023 7.06941 6.49023 7.75977C6.49023 8.45012 7.04988 9.00977 7.74023 9.00977Z" fill="#EFEFEF"/>
    <path d="M14.8496 14H26.2196C26.6201 14 27.0042 14.1591 27.2873 14.4423C27.5705 14.7254 27.7296 15.1095 27.7296 15.51V16.51C27.7243 16.907 27.5629 17.286 27.2803 17.5648C26.9977 17.8437 26.6166 18 26.2196 18H14.8496C14.4518 18 14.0703 17.842 13.7889 17.5607C13.5076 17.2794 13.3496 16.8978 13.3496 16.5V15.5C13.3522 15.103 13.5111 14.723 13.7918 14.4422C14.0726 14.1615 14.4526 14.0026 14.8496 14Z" fill="#EFEFEF"/>
    <path d="M26.2201 14.3C26.5516 14.3 26.8695 14.4317 27.104 14.6661C27.3384 14.9005 27.4701 15.2185 27.4701 15.55V16.55C27.4701 16.8815 27.3384 17.1995 27.104 17.4339C26.8695 17.6683 26.5516 17.8 26.2201 17.8H14.8501C14.5186 17.8 14.2006 17.6683 13.9662 17.4339C13.7318 17.1995 13.6001 16.8815 13.6001 16.55V15.55C13.6001 15.2185 13.7318 14.9005 13.9662 14.6661C14.2006 14.4317 14.5186 14.3 14.8501 14.3H26.2201ZM26.2201 13.79H14.8501C14.6181 13.7887 14.3882 13.8332 14.1735 13.9211C13.9588 14.0089 13.7636 14.1384 13.5991 14.3019C13.4346 14.4655 13.3041 14.66 13.215 14.8742C13.1259 15.0883 13.0801 15.318 13.0801 15.55V16.55C13.0801 16.782 13.1259 17.0117 13.215 17.2258C13.3041 17.44 13.4346 17.6345 13.5991 17.7981C13.7636 17.9616 13.9588 18.0911 14.1735 18.1789C14.3882 18.2668 14.6181 18.3113 14.8501 18.31H26.2201C26.4563 18.3127 26.6906 18.2679 26.9091 18.1782C27.1277 18.0884 27.3259 17.9556 27.492 17.7877C27.6581 17.6197 27.7887 17.42 27.876 17.2005C27.9633 16.981 28.0055 16.7462 28.0001 16.51V15.51C28.0001 15.0432 27.8147 14.5956 27.4846 14.2655C27.1545 13.9354 26.7069 13.75 26.2401 13.75L26.2201 13.79Z" fill="#EFEFEF"/>
    <path d="M7.74023 19.0298C9.39709 19.0298 10.7402 17.6866 10.7402 16.0298C10.7402 14.3729 9.39709 13.0298 7.74023 13.0298C6.08338 13.0298 4.74023 14.3729 4.74023 16.0298C4.74023 17.6866 6.08338 19.0298 7.74023 19.0298Z" stroke="#EFEFEF" stroke-width="1.5" stroke-linecap="round" stroke-linejoin="round"/>
    <path d="M7.74023 17.2798C8.43059 17.2798 8.99023 16.7201 8.99023 16.0298C8.99023 15.3394 8.43059 14.7798 7.74023 14.7798C7.04988 14.7798 6.49023 15.3394 6.49023 16.0298C6.49023 16.7201 7.04988 17.2798 7.74023 17.2798Z" fill="#EFEFEF"/>
    <path d="M26.2098 22.3101H14.8498C14.0159 22.3101 13.3398 22.9861 13.3398 23.8201V24.7701C13.3398 25.604 14.0159 26.2801 14.8498 26.2801H26.2098C27.0438 26.2801 27.7198 25.604 27.7198 24.7701V23.8201C27.7198 22.9861 27.0438 22.3101 26.2098 22.3101Z" fill="#EFEFEF"/>
    <path d="M26.2201 22.57C26.5516 22.57 26.8695 22.7017 27.104 22.9361C27.3384 23.1706 27.4701 23.4885 27.4701 23.82V24.82C27.4546 25.1401 27.3158 25.4418 27.0827 25.6618C26.8497 25.8818 26.5405 26.003 26.2201 26H14.8501C14.6864 26.0013 14.5241 25.9702 14.3725 25.9085C14.2209 25.8468 14.083 25.7557 13.9668 25.6404C13.8506 25.5251 13.7584 25.388 13.6954 25.2369C13.6325 25.0858 13.6001 24.9237 13.6001 24.76V23.76C13.6001 23.4285 13.7318 23.1106 13.9662 22.8761C14.2006 22.6417 14.5186 22.51 14.8501 22.51H26.2201V22.57ZM26.2201 22H14.8501C14.6181 21.9987 14.3882 22.0433 14.1735 22.1311C13.9588 22.219 13.7636 22.3484 13.5991 22.512C13.4346 22.6755 13.3041 22.87 13.215 23.0842C13.1259 23.2984 13.0801 23.5281 13.0801 23.76V24.76C13.0801 24.992 13.1259 25.2217 13.215 25.4359C13.3041 25.6501 13.4346 25.8445 13.5991 26.0081C13.7636 26.1716 13.9588 26.3011 14.1735 26.3889C14.3882 26.4768 14.6181 26.5213 14.8501 26.52H26.2201C26.4512 26.5227 26.6806 26.4798 26.8951 26.3937C27.1097 26.3077 27.3052 26.1803 27.4705 26.0187C27.6358 25.8571 27.7676 25.6646 27.8585 25.452C27.9494 25.2395 27.9975 25.0112 28.0001 24.78V23.78C28.0001 23.5489 27.9546 23.32 27.8661 23.1065C27.7777 22.893 27.648 22.699 27.4846 22.5355C27.3212 22.3721 27.1271 22.2424 26.9136 22.154C26.7001 22.0656 26.4712 22.02 26.2401 22.02L26.2201 22Z" fill="#EFEFEF"/>
    <path d="M7.74023 27.2998C9.39709 27.2998 10.7402 25.9567 10.7402 24.2998C10.7402 22.643 9.39709 21.2998 7.74023 21.2998C6.08338 21.2998 4.74023 22.643 4.74023 24.2998C4.74023 25.9567 6.08338 27.2998 7.74023 27.2998Z" stroke="#EFEFEF" stroke-width="1.5" stroke-linecap="round" stroke-linejoin="round"/>
</svg>
