<svg width="24" height="22" viewBox="0 0 24 22" fill="none" xmlns="http://www.w3.org/2000/svg">
    <path d="M24 4.38012C24 3.69851 23.7292 3.04482 23.2473 2.56285C22.7653 2.08088 22.1116 1.81012 21.43 1.81012H9.89L9 0.880117C8.76128 0.633363 8.47536 0.437148 8.15926 0.303149C7.84316 0.169149 7.50333 0.100103 7.16 0.100117H2.58C2.24166 0.0988006 1.90639 0.164304 1.59343 0.292869C1.28047 0.421434 0.995974 0.61053 0.756268 0.849308C0.516561 1.08809 0.326361 1.37185 0.196582 1.68431C0.0668024 1.99677 -2.56122e-06 2.33178 0 2.67012V19.4501C0.00528575 20.13 0.279758 20.7801 0.763316 21.258C1.24687 21.7359 1.90011 22.0028 2.58 22.0001H21.44C22.1164 21.9975 22.7645 21.7283 23.2438 21.251C23.723 20.7736 23.9947 20.1265 24 19.4501V4.38012ZM21.43 3.53012C21.5416 3.53012 21.6522 3.5521 21.7553 3.59482C21.8584 3.63754 21.9521 3.70015 22.031 3.77908C22.11 3.85801 22.1726 3.95171 22.2153 4.05484C22.258 4.15796 22.28 4.26849 22.28 4.38012V5.38012C22.0083 5.277 21.7206 5.22283 21.43 5.22012H13.58C13.3655 5.2245 13.1576 5.14566 13 5.00012L11.56 3.53012H21.43ZM22.28 19.4501C22.2813 19.5626 22.2603 19.6742 22.2182 19.7785C22.1761 19.8828 22.1137 19.9776 22.0346 20.0576C21.9555 20.1376 21.8614 20.2011 21.7576 20.2445C21.6538 20.2878 21.5425 20.3101 21.43 20.3101H2.58C2.46669 20.3115 2.35426 20.2901 2.24931 20.2474C2.14437 20.2046 2.04903 20.1413 1.9689 20.0612C1.88877 19.9811 1.82548 19.8857 1.78273 19.7808C1.73999 19.6759 1.71866 19.5634 1.72 19.4501V2.67012C1.72 2.55718 1.74224 2.44535 1.78546 2.34101C1.82868 2.23667 1.89203 2.14186 1.97189 2.062C2.05175 1.98215 2.14655 1.9188 2.25089 1.87558C2.35523 1.83236 2.46706 1.81012 2.58 1.81012H7.13C7.24542 1.81016 7.35969 1.83317 7.46613 1.87781C7.57257 1.92245 7.66907 1.98782 7.75 2.07012L11.75 6.18012C11.9901 6.42507 12.2763 6.6201 12.5921 6.75397C12.9079 6.88784 13.247 6.9579 13.59 6.96012H21.45C21.6754 6.96012 21.8916 7.04967 22.051 7.20908C22.2104 7.36848 22.3 7.58468 22.3 7.81012L22.28 19.4501Z" fill="#EFEFEF"/>
    <path d="M7.44992 14.7603H9.22992C10.229 14.7629 11.1864 15.1609 11.8928 15.8674C12.5992 16.5738 12.9973 17.5312 12.9999 18.5303V19.2603H3.66992V18.5303C3.67257 17.5295 4.07199 16.5706 4.78059 15.8639C5.48919 15.1571 6.44913 14.7603 7.44992 14.7603Z" fill="#EFEFEF"/>
    <path d="M8.33988 13.65C9.6985 13.65 10.7999 12.5486 10.7999 11.19C10.7999 9.83136 9.6985 8.72998 8.33988 8.72998C6.98126 8.72998 5.87988 9.83136 5.87988 11.19C5.87988 12.5486 6.98126 13.65 8.33988 13.65Z" fill="#EFEFEF"/>
    <path d="M10.4902 19.7703V18.5303C10.4929 17.3969 10.945 16.3108 11.7473 15.5103C12.5497 14.7098 13.6368 14.2603 14.7702 14.2603H16.5502C17.6836 14.2603 18.7708 14.7098 19.5731 15.5103C20.3755 16.3108 20.8276 17.3969 20.8302 18.5303V19.7703H10.4902Z" fill="#EFEFEF"/>
    <path d="M16.55 14.7603C17.0459 14.7589 17.5372 14.8555 17.9958 15.0444C18.4543 15.2332 18.8711 15.5107 19.2223 15.8609C19.5734 16.2111 19.852 16.6272 20.0421 17.0852C20.2322 17.5433 20.33 18.0343 20.33 18.5303V19.2703H11V18.5303C11 18.0343 11.0978 17.5433 11.2879 17.0852C11.478 16.6272 11.7566 16.2111 12.1077 15.8609C12.4589 15.5107 12.8757 15.2332 13.3342 15.0444C13.7928 14.8555 14.2841 14.7589 14.78 14.7603H16.56H16.55ZM16.56 13.7603H14.77C13.5057 13.7629 12.294 14.2663 11.4 15.1603C10.506 16.0542 10.0026 17.266 10 18.5303V20.2703H21.33V18.5303C21.3274 17.2643 20.8226 16.051 19.9264 15.1567C19.0303 14.2625 17.816 13.7603 16.55 13.7603H16.56Z" fill="#333333"/>
    <path d="M15.6602 14.1602C15.0668 14.1602 14.4868 13.9842 13.9934 13.6546C13.5001 13.3249 13.1156 12.8564 12.8885 12.3082C12.6615 11.76 12.602 11.1568 12.7178 10.5749C12.8336 9.99294 13.1193 9.4584 13.5388 9.03884C13.9584 8.61928 14.4929 8.33356 15.0749 8.2178C15.6568 8.10205 16.26 8.16146 16.8082 8.38852C17.3564 8.61558 17.8249 9.0001 18.1546 9.49345C18.4842 9.98679 18.6602 10.5668 18.6602 11.1602C18.6602 11.9558 18.3441 12.7189 17.7815 13.2815C17.2189 13.8441 16.4558 14.1602 15.6602 14.1602Z" fill="#EFEFEF"/>
    <path d="M15.6597 8.72999C16.1486 8.73 16.6266 8.87512 17.033 9.14697C17.4394 9.41882 17.7559 9.80517 17.9426 10.2571C18.1292 10.709 18.1776 11.2062 18.0815 11.6856C17.9853 12.165 17.7491 12.6051 17.4027 12.9501C17.0562 13.2951 16.6152 13.5296 16.1354 13.6237C15.6556 13.7179 15.1587 13.6676 14.7075 13.4791C14.2563 13.2906 13.8713 12.9725 13.6011 12.565C13.3309 12.1575 13.1877 11.6789 13.1897 11.19C13.1897 10.8661 13.2536 10.5454 13.3779 10.2463C13.5021 9.94716 13.6842 9.67553 13.9137 9.44697C14.1432 9.2184 14.4156 9.03741 14.7152 8.91437C15.0148 8.79134 15.3358 8.72868 15.6597 8.72999ZM15.6597 7.72999C14.9725 7.72802 14.3003 7.9301 13.7281 8.31063C13.1559 8.69115 12.7096 9.23299 12.4457 9.86746C12.1819 10.5019 12.1123 11.2005 12.2459 11.8745C12.3794 12.5485 12.7101 13.1678 13.196 13.6536C13.6819 14.1395 14.3011 14.4702 14.9752 14.6038C15.6492 14.7374 16.3477 14.6678 16.9822 14.4039C17.6167 14.1401 18.1585 13.6937 18.539 13.1216C18.9196 12.5494 19.1217 11.8771 19.1197 11.19C19.1144 10.274 18.7482 9.39695 18.1005 8.74921C17.4527 8.10147 16.5757 7.73524 15.6597 7.72999Z" fill="#333333"/>
</svg>