<svg width="40" height="40" viewBox="0 0 40 40" fill="none" xmlns="http://www.w3.org/2000/svg">
<path d="M40 20C40 8.95312 31.0469 0 20 0C8.95312 0 0 8.95312 0 20C0 31.0469 8.95312 40 20 40C31.0469 40 40 31.0469 40 20ZM15.7344 30.5156C14.7578 29.5391 14.7578 27.957 15.7344 26.9805L22.7109 20L15.7344 13.0156C14.7578 12.0391 14.7578 10.457 15.7344 9.48047C16.7109 8.50391 18.293 8.50391 19.2695 9.48047L28.0195 18.2305C28.5078 18.7188 28.75 19.3594 28.75 20C28.75 20.6406 28.5059 21.2797 28.0176 21.7672L19.2676 30.5172C18.2891 31.4922 16.7109 31.4922 15.7344 30.5156Z" fill="#5A9178"/>
</svg>
